<svg xmlns="http://www.w3.org/2000/svg" xmlns:xlink="http://www.w3.org/1999/xlink" width="500" zoomAndPan="magnify" viewBox="0 0 375 374.999991" height="500" preserveAspectRatio="xMidYMid meet" version="1.0"><defs><g/><clipPath id="3d08559cc4"><path d="M 58 76.445312 L 176 76.445312 L 176 209.945312 L 58 209.945312 Z M 58 76.445312 " clip-rule="nonzero"/></clipPath><clipPath id="f88d5e394a"><path d="M 104.984375 110.847656 L 342.4375 110.847656 L 342.4375 250.589844 L 104.984375 250.589844 Z M 104.984375 110.847656 " clip-rule="nonzero"/></clipPath><clipPath id="e23017c6f3"><path d="M 137.796875 110.847656 L 342.203125 110.847656 L 309.390625 250.589844 L 104.984375 250.589844 Z M 137.796875 110.847656 " clip-rule="nonzero"/></clipPath><clipPath id="a2d4b634c5"><path d="M 0.984375 0.847656 L 238.238281 0.847656 L 238.238281 140.589844 L 0.984375 140.589844 Z M 0.984375 0.847656 " clip-rule="nonzero"/></clipPath><clipPath id="15b27e8a8f"><path d="M 33.796875 0.847656 L 238.203125 0.847656 L 205.390625 140.589844 L 0.984375 140.589844 Z M 33.796875 0.847656 " clip-rule="nonzero"/></clipPath><clipPath id="acafba504e"><rect x="0" width="239" y="0" height="141"/></clipPath><clipPath id="10bec3ad3e"><path d="M 0.320312 55 L 1 55 L 1 56 L 0.320312 56 Z M 0.320312 55 " clip-rule="nonzero"/></clipPath><clipPath id="d457201ba1"><rect x="0" width="172" y="0" height="75"/></clipPath><clipPath id="12a9ad199e"><rect x="0" width="139" y="0" height="70"/></clipPath><clipPath id="26110b36ea"><path d="M 0.320312 5 L 10 5 L 10 16 L 0.320312 16 Z M 0.320312 5 " clip-rule="nonzero"/></clipPath><clipPath id="37fa44a8c3"><rect x="0" width="141" y="0" height="21"/></clipPath></defs><g clip-path="url(#3d08559cc4)"><path fill="#ffffff" d="M 158.429688 107.117188 L 158.394531 107.082031 C 158.359375 106.90625 158.289062 106.734375 158.21875 106.558594 C 158.152344 106.382812 158.082031 106.210938 157.976562 106.070312 C 157.90625 105.929688 157.800781 105.824219 157.660156 105.683594 C 157.558594 105.546875 157.417969 105.40625 157.242188 105.265625 C 157.136719 105.195312 156.996094 105.125 156.859375 105.058594 C 156.648438 104.953125 156.4375 104.847656 156.230469 104.8125 C 156.160156 104.777344 156.089844 104.742188 156.019531 104.707031 C 155.949219 104.707031 155.84375 104.742188 155.773438 104.707031 C 155.671875 104.707031 155.601562 104.671875 155.496094 104.671875 L 135.617188 104.671875 L 135.617188 95.242188 C 135.617188 84.96875 127.234375 76.585938 116.964844 76.585938 C 106.660156 76.585938 98.3125 84.96875 98.3125 95.242188 L 98.3125 104.671875 L 78.398438 104.671875 C 76.964844 104.671875 75.710938 105.71875 75.464844 107.117188 L 72.320312 125.144531 L 78.363281 125.144531 L 80.878906 110.609375 L 98.3125 110.609375 L 98.3125 116.585938 C 98.3125 118.226562 99.636719 119.554688 101.28125 119.554688 C 102.921875 119.554688 104.25 118.226562 104.25 116.585938 L 104.25 107.710938 C 104.25 107.675781 104.25 107.675781 104.25 107.640625 C 104.25 107.605469 104.25 107.605469 104.25 107.570312 L 104.25 95.242188 C 104.25 88.253906 109.941406 82.523438 116.964844 82.523438 C 123.953125 82.523438 129.679688 88.253906 129.679688 95.242188 L 129.679688 104.671875 L 113.890625 104.671875 C 112.25 104.671875 110.921875 106 110.921875 107.640625 C 110.921875 109.285156 112.25 110.609375 113.890625 110.609375 L 132.613281 110.609375 C 132.648438 110.609375 132.648438 110.609375 132.648438 110.609375 L 151.96875 110.609375 L 135.582031 204.476562 L 64.53125 204.476562 L 67.082031 189.945312 L 61.039062 189.945312 L 58.066406 206.921875 C 57.929688 207.792969 58.171875 208.667969 58.730469 209.367188 C 59.289062 210.03125 60.128906 210.414062 61.003906 210.414062 L 172.890625 210.414062 C 173.765625 210.414062 174.605469 210.03125 175.164062 209.367188 C 175.722656 208.667969 175.964844 207.792969 175.828125 206.921875 Z M 141.628906 204.511719 L 155.496094 124.96875 L 169.363281 204.511719 Z M 141.628906 204.511719 " fill-opacity="1" fill-rule="nonzero"/></g><path fill="#ffae00" d="M 84.652344 184.039062 L 51.1875 184.039062 C 49.542969 184.039062 48.21875 185.367188 48.21875 187.007812 C 48.21875 188.652344 49.542969 189.980469 51.1875 189.980469 L 84.652344 189.980469 C 86.292969 189.980469 87.621094 188.652344 87.621094 187.007812 C 87.621094 185.367188 86.292969 184.039062 84.652344 184.039062 Z M 84.652344 184.039062 " fill-opacity="1" fill-rule="nonzero"/><path fill="#ffae00" d="M 95.621094 125.179688 L 63.027344 125.179688 C 61.386719 125.179688 60.058594 126.503906 60.058594 128.148438 C 60.058594 129.789062 61.386719 131.117188 63.027344 131.117188 L 95.621094 131.117188 C 97.261719 131.117188 98.589844 129.789062 98.589844 128.148438 C 98.589844 126.503906 97.261719 125.179688 95.621094 125.179688 Z M 95.621094 125.179688 " fill-opacity="1" fill-rule="nonzero"/><path fill="#ffae00" d="M 51.1875 145.824219 L 89.261719 145.824219 C 90.90625 145.824219 92.230469 144.496094 92.230469 142.855469 C 92.230469 141.210938 90.90625 139.886719 89.261719 139.886719 L 51.1875 139.886719 C 49.542969 139.886719 48.21875 141.210938 48.21875 142.855469 C 48.21875 144.496094 49.542969 145.824219 51.1875 145.824219 Z M 51.1875 145.824219 " fill-opacity="1" fill-rule="nonzero"/><path fill="#ffae00" d="M 87.621094 157.5625 C 87.621094 155.917969 86.292969 154.589844 84.652344 154.589844 L 37.074219 154.589844 C 35.429688 154.589844 34.105469 155.917969 34.105469 157.5625 C 34.105469 159.203125 35.429688 160.53125 37.074219 160.53125 L 84.652344 160.53125 C 86.292969 160.53125 87.621094 159.203125 87.621094 157.5625 Z M 87.621094 157.5625 " fill-opacity="1" fill-rule="nonzero"/><path fill="#ffae00" d="M 93.105469 169.296875 L 56.566406 169.296875 C 54.925781 169.296875 53.597656 170.625 53.597656 172.269531 C 53.597656 173.910156 54.925781 175.238281 56.566406 175.238281 L 93.105469 175.238281 C 94.746094 175.238281 96.074219 173.910156 96.074219 172.269531 C 96.074219 170.625 94.746094 169.296875 93.105469 169.296875 Z M 93.105469 169.296875 " fill-opacity="1" fill-rule="nonzero"/><g clip-path="url(#f88d5e394a)"><g clip-path="url(#e23017c6f3)"><g transform="matrix(1, 0, 0, 1, 104, 110)"><g clip-path="url(#acafba504e)"><g clip-path="url(#a2d4b634c5)"><g clip-path="url(#15b27e8a8f)"><path fill="#2c3892" d="M 0.984375 0.847656 L 238.4375 0.847656 L 238.4375 140.589844 L 0.984375 140.589844 Z M 0.984375 0.847656 " fill-opacity="1" fill-rule="nonzero"/></g></g></g></g></g></g><g transform="matrix(1, 0, 0, 1, 136, 153)"><g clip-path="url(#d457201ba1)"><g clip-path="url(#10bec3ad3e)"><g fill="#ffae00" fill-opacity="1"><g transform="translate(0.496656, 55.968766)"><g/></g></g></g><g fill="#ffae00" fill-opacity="1"><g transform="translate(14.895842, 55.968766)"><g><path d="M 30.734375 -36.78125 L 29.21875 -28.75 L 16.390625 -28.75 L 14.96875 -21.390625 L 27.328125 -21.390625 L 25.859375 -13.71875 L 13.5 -13.71875 L 10.875 0 L 1.6875 0 L 8.71875 -36.78125 Z M 30.734375 -36.78125 "/></g></g></g><g fill="#ffae00" fill-opacity="1"><g transform="translate(42.055603, 55.968766)"><g><path d="M 24.59375 0 L 1.6875 0 L 8.71875 -36.78125 L 17.921875 -36.78125 L 12.5 -8.296875 L 26.21875 -8.296875 Z M 24.59375 0 "/></g></g></g><g fill="#ffae00" fill-opacity="1"><g transform="translate(68.690011, 55.968766)"><g><path d="M 21.234375 0.6875 C 17.828125 0.6875 14.734375 -0.03125 11.953125 -1.46875 C 9.171875 -2.90625 6.972656 -4.9375 5.359375 -7.5625 C 3.742188 -10.1875 2.9375 -13.203125 2.9375 -16.609375 C 2.9375 -20.242188 3.863281 -23.664062 5.71875 -26.875 C 7.582031 -30.082031 10.140625 -32.648438 13.390625 -34.578125 C 16.648438 -36.503906 20.3125 -37.46875 24.375 -37.46875 C 27.8125 -37.46875 30.921875 -36.75 33.703125 -35.3125 C 36.492188 -33.875 38.691406 -31.84375 40.296875 -29.21875 C 41.910156 -26.59375 42.71875 -23.578125 42.71875 -20.171875 C 42.71875 -16.535156 41.789062 -13.113281 39.9375 -9.90625 C 38.082031 -6.695312 35.515625 -4.128906 32.234375 -2.203125 C 28.960938 -0.273438 25.296875 0.6875 21.234375 0.6875 Z M 21.703125 -7.71875 C 23.941406 -7.71875 25.945312 -8.28125 27.71875 -9.40625 C 29.488281 -10.53125 30.863281 -12.019531 31.84375 -13.875 C 32.820312 -15.726562 33.3125 -17.671875 33.3125 -19.703125 C 33.3125 -21.453125 32.941406 -23.035156 32.203125 -24.453125 C 31.472656 -25.878906 30.394531 -27.003906 28.96875 -27.828125 C 27.550781 -28.648438 25.882812 -29.0625 23.96875 -29.0625 C 21.71875 -29.0625 19.707031 -28.5 17.9375 -27.375 C 16.175781 -26.257812 14.800781 -24.78125 13.8125 -22.9375 C 12.832031 -21.09375 12.34375 -19.140625 12.34375 -17.078125 C 12.34375 -15.328125 12.710938 -13.738281 13.453125 -12.3125 C 14.191406 -10.894531 15.269531 -9.773438 16.6875 -8.953125 C 18.101562 -8.128906 19.773438 -7.71875 21.703125 -7.71875 Z M 21.703125 -7.71875 "/></g></g></g><g fill="#ffae00" fill-opacity="1"><g transform="translate(110.874625, 55.968766)"><g><path d="M 38.3125 -14.140625 L 49.125 -36.78125 L 59.265625 -36.78125 L 40.25 0 L 32.265625 0 L 29.6875 -23.59375 L 18.03125 0 L 10.09375 0 L 5.15625 -36.78125 L 14.453125 -36.78125 L 16.546875 -14.078125 L 27.953125 -36.78125 L 35.625 -36.78125 Z M 38.3125 -14.140625 "/></g></g></g></g></g><g transform="matrix(1, 0, 0, 1, 136, 109)"><g clip-path="url(#12a9ad199e)"><g fill="#ffffff" fill-opacity="1"><g transform="translate(0.496656, 52.292456)"><g><path d="M 14.671875 0.640625 C 10.828125 0.640625 7.664062 -0.34375 5.1875 -2.3125 C 2.707031 -4.28125 1.46875 -7.265625 1.46875 -11.265625 L 9.984375 -11.265625 C 9.984375 -9.597656 10.441406 -8.351562 11.359375 -7.53125 C 12.285156 -6.707031 13.488281 -6.296875 14.96875 -6.296875 C 16.46875 -6.296875 17.601562 -6.609375 18.375 -7.234375 C 19.15625 -7.859375 19.546875 -8.695312 19.546875 -9.75 C 19.546875 -10.695312 19.117188 -11.472656 18.265625 -12.078125 C 17.410156 -12.691406 16.046875 -13.40625 14.171875 -14.21875 C 12.304688 -15.007812 10.753906 -15.78125 9.515625 -16.53125 C 8.285156 -17.289062 7.234375 -18.300781 6.359375 -19.5625 C 5.492188 -20.820312 5.0625 -22.40625 5.0625 -24.3125 C 5.0625 -26.1875 5.535156 -27.941406 6.484375 -29.578125 C 7.441406 -31.222656 8.894531 -32.550781 10.84375 -33.5625 C 12.800781 -34.582031 15.222656 -35.09375 18.109375 -35.09375 C 21.847656 -35.09375 24.804688 -34.109375 26.984375 -32.140625 C 29.171875 -30.171875 30.265625 -27.414062 30.265625 -23.875 L 21.90625 -23.875 C 21.90625 -25.21875 21.535156 -26.265625 20.796875 -27.015625 C 20.054688 -27.773438 19.046875 -28.15625 17.765625 -28.15625 C 16.421875 -28.15625 15.394531 -27.84375 14.6875 -27.21875 C 13.988281 -26.59375 13.640625 -25.804688 13.640625 -24.859375 C 13.640625 -23.867188 14.070312 -23.0625 14.9375 -22.4375 C 15.800781 -21.820312 17.1875 -21.101562 19.09375 -20.28125 C 20.96875 -19.457031 22.503906 -18.691406 23.703125 -17.984375 C 24.898438 -17.285156 25.929688 -16.3125 26.796875 -15.0625 C 27.671875 -13.8125 28.109375 -12.253906 28.109375 -10.390625 C 28.109375 -8.484375 27.628906 -6.691406 26.671875 -5.015625 C 25.722656 -3.347656 24.238281 -1.988281 22.21875 -0.9375 C 20.195312 0.113281 17.679688 0.640625 14.671875 0.640625 Z M 14.671875 0.640625 "/></g></g></g><g fill="#ffffff" fill-opacity="1"><g transform="translate(29.574133, 52.292456)"><g><path d="M 26.671875 -21.453125 L 29.1875 -34.453125 L 37.796875 -34.453125 L 31.203125 0 L 22.59375 0 L 25.203125 -13.6875 L 12.796875 -13.6875 L 10.1875 0 L 1.578125 0 L 8.171875 -34.453125 L 16.78125 -34.453125 L 14.265625 -21.453125 Z M 26.671875 -21.453125 "/></g></g></g><g fill="#ffffff" fill-opacity="1"><g transform="translate(65.687412, 52.292456)"><g><path d="M 19.890625 0.640625 C 16.703125 0.640625 13.800781 -0.03125 11.1875 -1.375 C 8.582031 -2.71875 6.523438 -4.617188 5.015625 -7.078125 C 3.503906 -9.546875 2.75 -12.367188 2.75 -15.546875 C 2.75 -18.960938 3.617188 -22.171875 5.359375 -25.171875 C 7.097656 -28.171875 9.492188 -30.570312 12.546875 -32.375 C 15.597656 -34.1875 19.03125 -35.09375 22.84375 -35.09375 C 26.050781 -35.09375 28.957031 -34.421875 31.5625 -33.078125 C 34.175781 -31.734375 36.238281 -29.828125 37.75 -27.359375 C 39.257812 -24.898438 40.015625 -22.082031 40.015625 -18.90625 C 40.015625 -15.488281 39.144531 -12.28125 37.40625 -9.28125 C 35.664062 -6.28125 33.257812 -3.875 30.1875 -2.0625 C 27.125 -0.257812 23.691406 0.640625 19.890625 0.640625 Z M 20.328125 -7.234375 C 22.429688 -7.234375 24.3125 -7.757812 25.96875 -8.8125 C 27.625 -9.863281 28.910156 -11.257812 29.828125 -13 C 30.742188 -14.738281 31.203125 -16.554688 31.203125 -18.453125 C 31.203125 -20.097656 30.859375 -21.582031 30.171875 -22.90625 C 29.484375 -24.238281 28.472656 -25.289062 27.140625 -26.0625 C 25.816406 -26.832031 24.25 -27.21875 22.4375 -27.21875 C 20.34375 -27.21875 18.46875 -26.691406 16.8125 -25.640625 C 15.15625 -24.585938 13.863281 -23.203125 12.9375 -21.484375 C 12.019531 -19.765625 11.5625 -17.9375 11.5625 -16 C 11.5625 -14.351562 11.90625 -12.863281 12.59375 -11.53125 C 13.289062 -10.207031 14.300781 -9.160156 15.625 -8.390625 C 16.957031 -7.617188 18.523438 -7.234375 20.328125 -7.234375 Z M 20.328125 -7.234375 "/></g></g></g><g fill="#ffffff" fill-opacity="1"><g transform="translate(105.195583, 52.292456)"><g><path d="M 19.890625 -34.453125 C 22.285156 -34.453125 24.414062 -34.015625 26.28125 -33.140625 C 28.15625 -32.273438 29.625 -31.046875 30.6875 -29.453125 C 31.75 -27.859375 32.28125 -26 32.28125 -23.875 C 32.28125 -21.707031 31.726562 -19.671875 30.625 -17.765625 C 29.53125 -15.859375 27.890625 -14.316406 25.703125 -13.140625 C 23.523438 -11.960938 20.894531 -11.375 17.8125 -11.375 L 12.40625 -11.375 L 10.234375 0 L 1.578125 0 L 8.171875 -34.453125 Z M 17.96875 -18.703125 C 19.769531 -18.703125 21.140625 -19.144531 22.078125 -20.03125 C 23.015625 -20.914062 23.484375 -22.015625 23.484375 -23.328125 C 23.484375 -24.503906 23.054688 -25.429688 22.203125 -26.109375 C 21.347656 -26.785156 20.226562 -27.125 18.84375 -27.125 L 15.453125 -27.125 L 13.828125 -18.703125 Z M 17.96875 -18.703125 "/></g></g></g></g></g><g transform="matrix(1, 0, 0, 1, 136, 214)"><g clip-path="url(#37fa44a8c3)"><g clip-path="url(#26110b36ea)"><g fill="#ffffff" fill-opacity="1"><g transform="translate(0.496656, 15.771372)"><g><path d="M 0.390625 0 L 2.671875 -10.765625 L 8.6875 -10.765625 L 8.296875 -8.890625 L 4.515625 -8.890625 L 4.03125 -6.53125 L 7.546875 -6.53125 L 7.140625 -4.65625 L 3.625 -4.65625 L 3.03125 -1.890625 L 6.796875 -1.890625 L 6.40625 0 Z M 0.390625 0 "/></g></g></g></g><g fill="#ffffff" fill-opacity="1"><g transform="translate(13.192194, 15.771372)"><g><path d="M 0.296875 -3.125 L 0.6875 -4.96875 L 4.546875 -4.96875 L 4.15625 -3.125 Z M 0.296875 -3.125 "/></g></g></g><g fill="#ffffff" fill-opacity="1"><g transform="translate(22.568182, 15.771372)"><g><path d="M 4.859375 0.140625 C 3.984375 0.140625 3.253906 -0.03125 2.671875 -0.375 C 2.085938 -0.71875 1.644531 -1.203125 1.34375 -1.828125 C 1.050781 -2.460938 0.90625 -3.210938 0.90625 -4.078125 C 0.90625 -4.703125 0.976562 -5.335938 1.125 -5.984375 C 1.269531 -6.640625 1.488281 -7.257812 1.78125 -7.84375 C 2.070312 -8.4375 2.445312 -8.960938 2.90625 -9.421875 C 3.363281 -9.890625 3.90625 -10.257812 4.53125 -10.53125 C 5.15625 -10.800781 5.863281 -10.9375 6.65625 -10.9375 C 7.34375 -10.9375 7.921875 -10.867188 8.390625 -10.734375 C 8.867188 -10.609375 9.347656 -10.414062 9.828125 -10.15625 L 8.953125 -8.3125 C 8.609375 -8.519531 8.253906 -8.691406 7.890625 -8.828125 C 7.523438 -8.960938 7.113281 -9.03125 6.65625 -9.03125 C 6.175781 -9.03125 5.742188 -8.929688 5.359375 -8.734375 C 4.984375 -8.535156 4.660156 -8.269531 4.390625 -7.9375 C 4.117188 -7.601562 3.894531 -7.222656 3.71875 -6.796875 C 3.539062 -6.378906 3.40625 -5.945312 3.3125 -5.5 C 3.226562 -5.050781 3.1875 -4.613281 3.1875 -4.1875 C 3.1875 -3.375 3.359375 -2.765625 3.703125 -2.359375 C 4.046875 -1.960938 4.582031 -1.765625 5.3125 -1.765625 C 5.71875 -1.765625 6.128906 -1.816406 6.546875 -1.921875 C 6.960938 -2.023438 7.378906 -2.160156 7.796875 -2.328125 L 7.796875 -0.421875 C 7.492188 -0.304688 7.09375 -0.179688 6.59375 -0.046875 C 6.09375 0.078125 5.515625 0.140625 4.859375 0.140625 Z M 4.859375 0.140625 "/></g></g></g><g fill="#ffffff" fill-opacity="1"><g transform="translate(36.316261, 15.771372)"><g><path d="M 4.90625 0.140625 C 4.03125 0.140625 3.296875 -0.0234375 2.703125 -0.359375 C 2.109375 -0.703125 1.660156 -1.179688 1.359375 -1.796875 C 1.054688 -2.410156 0.90625 -3.128906 0.90625 -3.953125 C 0.90625 -4.515625 0.953125 -5.070312 1.046875 -5.625 C 1.148438 -6.1875 1.300781 -6.726562 1.5 -7.25 C 1.707031 -7.769531 1.96875 -8.253906 2.28125 -8.703125 C 2.59375 -9.148438 2.957031 -9.539062 3.375 -9.875 C 3.800781 -10.207031 4.28125 -10.46875 4.8125 -10.65625 C 5.351562 -10.84375 5.953125 -10.9375 6.609375 -10.9375 C 7.910156 -10.9375 8.890625 -10.566406 9.546875 -9.828125 C 10.210938 -9.097656 10.546875 -8.125 10.546875 -6.90625 C 10.546875 -6.320312 10.492188 -5.742188 10.390625 -5.171875 C 10.296875 -4.597656 10.148438 -4.046875 9.953125 -3.515625 C 9.753906 -2.992188 9.5 -2.507812 9.1875 -2.0625 C 8.882812 -1.625 8.523438 -1.238281 8.109375 -0.90625 C 7.691406 -0.570312 7.21875 -0.3125 6.6875 -0.125 C 6.15625 0.0507812 5.5625 0.140625 4.90625 0.140625 Z M 5.0625 -1.765625 C 5.351562 -1.765625 5.632812 -1.816406 5.90625 -1.921875 C 6.175781 -2.035156 6.429688 -2.191406 6.671875 -2.390625 C 6.910156 -2.597656 7.125 -2.847656 7.3125 -3.140625 C 7.507812 -3.441406 7.675781 -3.78125 7.8125 -4.15625 C 7.945312 -4.53125 8.050781 -4.941406 8.125 -5.390625 C 8.207031 -5.847656 8.25 -6.332031 8.25 -6.84375 C 8.25 -7.507812 8.09375 -8.039062 7.78125 -8.4375 C 7.476562 -8.832031 7.023438 -9.03125 6.421875 -9.03125 C 6.109375 -9.03125 5.8125 -8.96875 5.53125 -8.84375 C 5.25 -8.726562 4.988281 -8.554688 4.75 -8.328125 C 4.507812 -8.097656 4.296875 -7.828125 4.109375 -7.515625 C 3.921875 -7.210938 3.753906 -6.867188 3.609375 -6.484375 C 3.472656 -6.109375 3.367188 -5.707031 3.296875 -5.28125 C 3.222656 -4.851562 3.1875 -4.410156 3.1875 -3.953125 C 3.1875 -3.472656 3.257812 -3.070312 3.40625 -2.75 C 3.5625 -2.425781 3.773438 -2.179688 4.046875 -2.015625 C 4.328125 -1.847656 4.664062 -1.765625 5.0625 -1.765625 Z M 5.0625 -1.765625 "/></g></g></g><g fill="#ffffff" fill-opacity="1"><g transform="translate(51.845562, 15.771372)"><g><path d="M 0.390625 0 L 2.671875 -10.765625 L 5.640625 -10.765625 L 6.125 -2.71875 L 6.1875 -2.71875 L 10.21875 -10.765625 L 13.34375 -10.765625 L 11.0625 0 L 9 0 L 10.078125 -5.09375 C 10.148438 -5.4375 10.234375 -5.800781 10.328125 -6.1875 C 10.421875 -6.570312 10.515625 -6.953125 10.609375 -7.328125 C 10.703125 -7.710938 10.789062 -8.050781 10.875 -8.34375 L 10.8125 -8.34375 L 6.625 0 L 4.546875 0 L 4.09375 -8.34375 L 4.046875 -8.34375 C 4.015625 -8.125 3.96875 -7.828125 3.90625 -7.453125 C 3.851562 -7.085938 3.785156 -6.691406 3.703125 -6.265625 C 3.628906 -5.835938 3.550781 -5.414062 3.46875 -5 L 2.421875 0 Z M 0.390625 0 "/></g></g></g><g fill="#ffffff" fill-opacity="1"><g transform="translate(69.634515, 15.771372)"><g><path d="M 0.390625 0 L 2.671875 -10.765625 L 5.640625 -10.765625 L 6.125 -2.71875 L 6.1875 -2.71875 L 10.21875 -10.765625 L 13.34375 -10.765625 L 11.0625 0 L 9 0 L 10.078125 -5.09375 C 10.148438 -5.4375 10.234375 -5.800781 10.328125 -6.1875 C 10.421875 -6.570312 10.515625 -6.953125 10.609375 -7.328125 C 10.703125 -7.710938 10.789062 -8.050781 10.875 -8.34375 L 10.8125 -8.34375 L 6.625 0 L 4.546875 0 L 4.09375 -8.34375 L 4.046875 -8.34375 C 4.015625 -8.125 3.96875 -7.828125 3.90625 -7.453125 C 3.851562 -7.085938 3.785156 -6.691406 3.703125 -6.265625 C 3.628906 -5.835938 3.550781 -5.414062 3.46875 -5 L 2.421875 0 Z M 0.390625 0 "/></g></g></g><g fill="#ffffff" fill-opacity="1"><g transform="translate(87.423467, 15.771372)"><g><path d="M 0.390625 0 L 2.671875 -10.765625 L 8.6875 -10.765625 L 8.296875 -8.890625 L 4.515625 -8.890625 L 4.03125 -6.53125 L 7.546875 -6.53125 L 7.140625 -4.65625 L 3.625 -4.65625 L 3.03125 -1.890625 L 6.796875 -1.890625 L 6.40625 0 Z M 0.390625 0 "/></g></g></g><g fill="#ffffff" fill-opacity="1"><g transform="translate(100.119006, 15.771372)"><g><path d="M 0.390625 0 L 2.671875 -10.765625 L 5.3125 -10.765625 C 6.382812 -10.765625 7.234375 -10.53125 7.859375 -10.0625 C 8.492188 -9.601562 8.8125 -8.851562 8.8125 -7.8125 C 8.8125 -7.238281 8.707031 -6.738281 8.5 -6.3125 C 8.289062 -5.882812 8.007812 -5.523438 7.65625 -5.234375 C 7.300781 -4.953125 6.894531 -4.734375 6.4375 -4.578125 L 8.359375 0 L 5.90625 0 L 4.390625 -4.125 L 3.515625 -4.125 L 2.640625 0 Z M 3.90625 -5.984375 L 4.46875 -5.984375 C 4.789062 -5.984375 5.078125 -6.019531 5.328125 -6.09375 C 5.585938 -6.164062 5.804688 -6.269531 5.984375 -6.40625 C 6.160156 -6.550781 6.289062 -6.726562 6.375 -6.9375 C 6.46875 -7.15625 6.515625 -7.40625 6.515625 -7.6875 C 6.515625 -8.09375 6.394531 -8.394531 6.15625 -8.59375 C 5.925781 -8.789062 5.5625 -8.890625 5.0625 -8.890625 L 4.515625 -8.890625 Z M 3.90625 -5.984375 "/></g></g></g><g fill="#ffffff" fill-opacity="1"><g transform="translate(113.822922, 15.771372)"><g><path d="M 4.859375 0.140625 C 3.984375 0.140625 3.253906 -0.03125 2.671875 -0.375 C 2.085938 -0.71875 1.644531 -1.203125 1.34375 -1.828125 C 1.050781 -2.460938 0.90625 -3.210938 0.90625 -4.078125 C 0.90625 -4.703125 0.976562 -5.335938 1.125 -5.984375 C 1.269531 -6.640625 1.488281 -7.257812 1.78125 -7.84375 C 2.070312 -8.4375 2.445312 -8.960938 2.90625 -9.421875 C 3.363281 -9.890625 3.90625 -10.257812 4.53125 -10.53125 C 5.15625 -10.800781 5.863281 -10.9375 6.65625 -10.9375 C 7.34375 -10.9375 7.921875 -10.867188 8.390625 -10.734375 C 8.867188 -10.609375 9.347656 -10.414062 9.828125 -10.15625 L 8.953125 -8.3125 C 8.609375 -8.519531 8.253906 -8.691406 7.890625 -8.828125 C 7.523438 -8.960938 7.113281 -9.03125 6.65625 -9.03125 C 6.175781 -9.03125 5.742188 -8.929688 5.359375 -8.734375 C 4.984375 -8.535156 4.660156 -8.269531 4.390625 -7.9375 C 4.117188 -7.601562 3.894531 -7.222656 3.71875 -6.796875 C 3.539062 -6.378906 3.40625 -5.945312 3.3125 -5.5 C 3.226562 -5.050781 3.1875 -4.613281 3.1875 -4.1875 C 3.1875 -3.375 3.359375 -2.765625 3.703125 -2.359375 C 4.046875 -1.960938 4.582031 -1.765625 5.3125 -1.765625 C 5.71875 -1.765625 6.128906 -1.816406 6.546875 -1.921875 C 6.960938 -2.023438 7.378906 -2.160156 7.796875 -2.328125 L 7.796875 -0.421875 C 7.492188 -0.304688 7.09375 -0.179688 6.59375 -0.046875 C 6.09375 0.078125 5.515625 0.140625 4.859375 0.140625 Z M 4.859375 0.140625 "/></g></g></g><g fill="#ffffff" fill-opacity="1"><g transform="translate(127.571001, 15.771372)"><g><path d="M 0.390625 0 L 2.671875 -10.765625 L 8.6875 -10.765625 L 8.296875 -8.890625 L 4.515625 -8.890625 L 4.03125 -6.53125 L 7.546875 -6.53125 L 7.140625 -4.65625 L 3.625 -4.65625 L 3.03125 -1.890625 L 6.796875 -1.890625 L 6.40625 0 Z M 0.390625 0 "/></g></g></g></g></g></svg>